<?xml version="1.0" encoding="UTF-8" standalone="no"?><svg xmlns="http://www.w3.org/2000/svg" xmlns:xlink="http://www.w3.org/1999/xlink" contentStyleType="text/css" height="305px" preserveAspectRatio="none" style="width:1298px;height:305px;background:#FFFFFF;" version="1.1" viewBox="0 0 1298 305" width="1298px" zoomAndPan="magnify"><defs/><g><!--MD5=[e2d340932e8357469a373002aefc34f0]
cluster OperationResult.MediatorIntegration--><g id="cluster_OperationResult.MediatorIntegration"><path d="M8.5,6 L268.5,6 A3.75,3.75 0 0 1 271,8.5 L278,29.6094 L1288.5,29.6094 A2.5,2.5 0 0 1 1291,32.1094 L1291,171.5 A2.5,2.5 0 0 1 1288.5,174 L8.5,174 A2.5,2.5 0 0 1 6,171.5 L6,8.5 A2.5,2.5 0 0 1 8.5,6 " fill="none" style="stroke:#000000;stroke-width:1.5;"/><line style="stroke:#000000;stroke-width:1.5;" x1="6" x2="278" y1="29.6094" y2="29.6094"/><text fill="#000000" font-family="sans-serif" font-size="14" font-weight="bold" lengthAdjust="spacing" textLength="259" x="10" y="22.5332">OperationResult.MediatorIntegration</text></g><!--MD5=[d5c1c9ce83ade5a935aa847b812afe6f]
cluster Contracts--><g id="cluster_Contracts"><path d="M757.5,50 L826.5,50 A3.75,3.75 0 0 1 829,52.5 L836,73.6094 L1264.5,73.6094 A2.5,2.5 0 0 1 1267,76.1094 L1267,147.5 A2.5,2.5 0 0 1 1264.5,150 L757.5,150 A2.5,2.5 0 0 1 755,147.5 L755,52.5 A2.5,2.5 0 0 1 757.5,50 " fill="none" style="stroke:#000000;stroke-width:1.5;"/><line style="stroke:#000000;stroke-width:1.5;" x1="755" x2="836" y1="73.6094" y2="73.6094"/><text fill="#000000" font-family="sans-serif" font-size="14" font-weight="bold" lengthAdjust="spacing" textLength="68" x="759" y="66.5332">Contracts</text></g><!--MD5=[c90e3a17b85d4d1a1b8fd7c3cb6ca96a]
cluster Pipelines--><g id="cluster_Pipelines"><path d="M32.5,50 L98.5,50 A3.75,3.75 0 0 1 101,52.5 L108,73.6094 L728.5,73.6094 A2.5,2.5 0 0 1 731,76.1094 L731,147.5 A2.5,2.5 0 0 1 728.5,150 L32.5,150 A2.5,2.5 0 0 1 30,147.5 L30,52.5 A2.5,2.5 0 0 1 32.5,50 " fill="none" style="stroke:#000000;stroke-width:1.5;"/><line style="stroke:#000000;stroke-width:1.5;" x1="30" x2="108" y1="73.6094" y2="73.6094"/><text fill="#000000" font-family="sans-serif" font-size="14" font-weight="bold" lengthAdjust="spacing" textLength="65" x="34" y="66.5332">Pipelines</text></g><!--MD5=[c253113ac072c9194e26b85789b8778e]
cluster MediatR--><g id="cluster_MediatR"><path d="M409.5,198 L468.5,198 A3.75,3.75 0 0 1 471,200.5 L478,221.6094 L1215.5,221.6094 A2.5,2.5 0 0 1 1218,224.1094 L1218,295.5 A2.5,2.5 0 0 1 1215.5,298 L409.5,298 A2.5,2.5 0 0 1 407,295.5 L407,200.5 A2.5,2.5 0 0 1 409.5,198 " fill="none" style="stroke:#000000;stroke-width:1.5;"/><line style="stroke:#000000;stroke-width:1.5;" x1="407" x2="478" y1="221.6094" y2="221.6094"/><text fill="#000000" font-family="sans-serif" font-size="14" font-weight="bold" lengthAdjust="spacing" textLength="58" x="411" y="214.5332">MediatR</text></g><!--MD5=[11008d568be52109e77f2977709dd853]
class ICommand--><g id="elem_ICommand"><rect codeLine="4" fill="#F1F1F1" height="48" id="ICommand" rx="2.5" ry="2.5" style="stroke:#181818;stroke-width:0.5;" width="100" x="1151" y="86"/><ellipse cx="1166" cy="102" fill="#B4A7E5" rx="11" ry="11" style="stroke:#181818;stroke-width:1.0;"/><path d="M1166.9531,98.6406 L1166.9531,105.2969 L1168.6719,105.2969 Q1169.2813,105.2969 1169.5469,105.5313 Q1169.8125,105.7656 1169.8125,106.1563 Q1169.8125,106.5313 1169.5469,106.7656 Q1169.2813,107 1168.6719,107 L1163.5313,107 Q1162.9219,107 1162.6563,106.7656 Q1162.3906,106.5313 1162.3906,106.1406 Q1162.3906,105.7656 1162.6563,105.5313 Q1162.9219,105.2969 1163.5313,105.2969 L1165.25,105.2969 L1165.25,98.6406 L1163.5313,98.6406 Q1162.9219,98.6406 1162.6563,98.4063 Q1162.3906,98.1719 1162.3906,97.7813 Q1162.3906,97.4063 1162.6563,97.1719 Q1162.9219,96.9375 1163.5313,96.9375 L1168.6719,96.9375 Q1169.2813,96.9375 1169.5469,97.1719 Q1169.8125,97.4063 1169.8125,97.7813 Q1169.8125,98.1719 1169.5469,98.4063 Q1169.2813,98.6406 1168.6719,98.6406 L1166.9531,98.6406 Z " fill="#000000"/><text fill="#000000" font-family="sans-serif" font-size="14" font-style="italic" lengthAdjust="spacing" textLength="68" x="1180" y="107.7285">ICommand</text><line style="stroke:#181818;stroke-width:0.5;" x1="1152" x2="1250" y1="118" y2="118"/><line style="stroke:#181818;stroke-width:0.5;" x1="1152" x2="1250" y1="126" y2="126"/></g><!--MD5=[807360d9e6bcfb24ecaab88291cadeca]
class IQuery--><g id="elem_IQuery"><rect codeLine="8" fill="#F1F1F1" height="48" id="IQuery" rx="2.5" ry="2.5" style="stroke:#181818;stroke-width:0.5;" width="142" x="974" y="86"/><ellipse cx="989" cy="102" fill="#B4A7E5" rx="11" ry="11" style="stroke:#181818;stroke-width:1.0;"/><path d="M989.9531,98.6406 L989.9531,105.2969 L991.6719,105.2969 Q992.2813,105.2969 992.5469,105.5313 Q992.8125,105.7656 992.8125,106.1563 Q992.8125,106.5313 992.5469,106.7656 Q992.2813,107 991.6719,107 L986.5313,107 Q985.9219,107 985.6563,106.7656 Q985.3906,106.5313 985.3906,106.1406 Q985.3906,105.7656 985.6563,105.5313 Q985.9219,105.2969 986.5313,105.2969 L988.25,105.2969 L988.25,98.6406 L986.5313,98.6406 Q985.9219,98.6406 985.6563,98.4063 Q985.3906,98.1719 985.3906,97.7813 Q985.3906,97.4063 985.6563,97.1719 Q985.9219,96.9375 986.5313,96.9375 L991.6719,96.9375 Q992.2813,96.9375 992.5469,97.1719 Q992.8125,97.4063 992.8125,97.7813 Q992.8125,98.1719 992.5469,98.4063 Q992.2813,98.6406 991.6719,98.6406 L989.9531,98.6406 Z " fill="#000000"/><text fill="#000000" font-family="sans-serif" font-size="14" font-style="italic" lengthAdjust="spacing" textLength="43" x="1003" y="107.7285">IQuery</text><rect fill="#FFFFFF" height="17.0938" style="stroke:#181818;stroke-width:1.0;stroke-dasharray:2.0,2.0;" width="65" x="1054" y="83"/><text fill="#000000" font-family="sans-serif" font-size="12" font-style="italic" lengthAdjust="spacing" textLength="63" x="1055" y="96.457">TResponse</text><line style="stroke:#181818;stroke-width:0.5;" x1="975" x2="1115" y1="118" y2="118"/><line style="stroke:#181818;stroke-width:0.5;" x1="975" x2="1115" y1="126" y2="126"/></g><!--MD5=[3637c4f62dbe31b3909ee6e14d5786f4]
class Contracts.ICommand--><g id="elem_Contracts.ICommand"><rect codeLine="13" fill="#F1F1F1" height="48" id="Contracts.ICommand" rx="2.5" ry="2.5" style="stroke:#181818;stroke-width:0.5;" width="167" x="771.5" y="86"/><ellipse cx="786.5" cy="102" fill="#B4A7E5" rx="11" ry="11" style="stroke:#181818;stroke-width:1.0;"/><path d="M787.4531,98.6406 L787.4531,105.2969 L789.1719,105.2969 Q789.7813,105.2969 790.0469,105.5313 Q790.3125,105.7656 790.3125,106.1563 Q790.3125,106.5313 790.0469,106.7656 Q789.7813,107 789.1719,107 L784.0313,107 Q783.4219,107 783.1563,106.7656 Q782.8906,106.5313 782.8906,106.1406 Q782.8906,105.7656 783.1563,105.5313 Q783.4219,105.2969 784.0313,105.2969 L785.75,105.2969 L785.75,98.6406 L784.0313,98.6406 Q783.4219,98.6406 783.1563,98.4063 Q782.8906,98.1719 782.8906,97.7813 Q782.8906,97.4063 783.1563,97.1719 Q783.4219,96.9375 784.0313,96.9375 L789.1719,96.9375 Q789.7813,96.9375 790.0469,97.1719 Q790.3125,97.4063 790.3125,97.7813 Q790.3125,98.1719 790.0469,98.4063 Q789.7813,98.6406 789.1719,98.6406 L787.4531,98.6406 Z " fill="#000000"/><text fill="#000000" font-family="sans-serif" font-size="14" font-style="italic" lengthAdjust="spacing" textLength="68" x="800.5" y="107.7285">ICommand</text><rect fill="#FFFFFF" height="17.0938" style="stroke:#181818;stroke-width:1.0;stroke-dasharray:2.0,2.0;" width="65" x="876.5" y="83"/><text fill="#000000" font-family="sans-serif" font-size="12" font-style="italic" lengthAdjust="spacing" textLength="63" x="877.5" y="96.457">TResponse</text><line style="stroke:#181818;stroke-width:0.5;" x1="772.5" x2="937.5" y1="118" y2="118"/><line style="stroke:#181818;stroke-width:0.5;" x1="772.5" x2="937.5" y1="126" y2="126"/></g><!--MD5=[4e3b999579f405a8c03c76b1359d50ce]
class ExceptionHandlingPipeline--><g id="elem_ExceptionHandlingPipeline"><rect codeLine="18" fill="#F1F1F1" height="48" id="ExceptionHandlingPipeline" rx="2.5" ry="2.5" style="stroke:#181818;stroke-width:0.5;" width="324" x="391" y="86"/><ellipse cx="406" cy="102" fill="#ADD1B2" rx="11" ry="11" style="stroke:#181818;stroke-width:1.0;"/><path d="M408.7656,97.875 Q408.9219,97.6563 409.1094,97.5469 Q409.2969,97.4375 409.5156,97.4375 Q409.8906,97.4375 410.125,97.7031 Q410.3594,97.9531 410.3594,98.5625 L410.3594,100.0156 Q410.3594,100.625 410.125,100.8906 Q409.8906,101.1563 409.5156,101.1563 Q409.1719,101.1563 408.9688,100.9531 Q408.7656,100.7656 408.6563,100.25 Q408.6094,99.8906 408.4219,99.7031 Q408.0938,99.3281 407.4844,99.1094 Q406.875,98.8906 406.25,98.8906 Q405.4844,98.8906 404.8438,99.2188 Q404.2188,99.5469 403.7188,100.2969 Q403.2344,101.0469 403.2344,102.0781 L403.2344,103.1719 Q403.2344,104.4063 404.125,105.2344 Q405.0156,106.0469 406.6094,106.0469 Q407.5469,106.0469 408.2031,105.7969 Q408.5938,105.6406 409.0156,105.2031 Q409.2813,104.9375 409.4219,104.8594 Q409.5781,104.7813 409.7813,104.7813 Q410.1094,104.7813 410.3594,105.0469 Q410.625,105.2969 410.625,105.6406 Q410.625,105.9844 410.2813,106.3906 Q409.7813,106.9688 408.9844,107.2969 Q407.9063,107.75 406.6094,107.75 Q405.0938,107.75 403.8906,107.125 Q402.9063,106.625 402.2188,105.5625 Q401.5313,104.4844 401.5313,103.2031 L401.5313,102.0469 Q401.5313,100.7188 402.1406,99.5781 Q402.7656,98.4219 403.8594,97.8125 Q404.9531,97.1875 406.1875,97.1875 Q406.9219,97.1875 407.5625,97.3594 Q408.2188,97.5156 408.7656,97.875 Z " fill="#000000"/><text fill="#000000" font-family="sans-serif" font-size="14" lengthAdjust="spacing" textLength="166" x="420" y="107.7285">ExceptionHandlingPipeline</text><rect fill="#FFFFFF" height="17.0938" style="stroke:#181818;stroke-width:1.0;stroke-dasharray:2.0,2.0;" width="124" x="594" y="83"/><text fill="#000000" font-family="sans-serif" font-size="12" font-style="italic" lengthAdjust="spacing" textLength="122" x="595" y="96.457">TRequest, TResponse</text><line style="stroke:#181818;stroke-width:0.5;" x1="392" x2="714" y1="118" y2="118"/><line style="stroke:#181818;stroke-width:0.5;" x1="392" x2="714" y1="126" y2="126"/></g><!--MD5=[e3d9c976efc42cc5a787090a0f2c5868]
class FluentValidationPipeline--><g id="elem_FluentValidationPipeline"><rect codeLine="21" fill="#F1F1F1" height="48" id="FluentValidationPipeline" rx="2.5" ry="2.5" style="stroke:#181818;stroke-width:0.5;" width="310" x="46" y="86"/><ellipse cx="61" cy="102" fill="#ADD1B2" rx="11" ry="11" style="stroke:#181818;stroke-width:1.0;"/><path d="M63.7656,97.875 Q63.9219,97.6563 64.1094,97.5469 Q64.2969,97.4375 64.5156,97.4375 Q64.8906,97.4375 65.125,97.7031 Q65.3594,97.9531 65.3594,98.5625 L65.3594,100.0156 Q65.3594,100.625 65.125,100.8906 Q64.8906,101.1563 64.5156,101.1563 Q64.1719,101.1563 63.9688,100.9531 Q63.7656,100.7656 63.6563,100.25 Q63.6094,99.8906 63.4219,99.7031 Q63.0938,99.3281 62.4844,99.1094 Q61.875,98.8906 61.25,98.8906 Q60.4844,98.8906 59.8438,99.2188 Q59.2188,99.5469 58.7188,100.2969 Q58.2344,101.0469 58.2344,102.0781 L58.2344,103.1719 Q58.2344,104.4063 59.125,105.2344 Q60.0156,106.0469 61.6094,106.0469 Q62.5469,106.0469 63.2031,105.7969 Q63.5938,105.6406 64.0156,105.2031 Q64.2813,104.9375 64.4219,104.8594 Q64.5781,104.7813 64.7813,104.7813 Q65.1094,104.7813 65.3594,105.0469 Q65.625,105.2969 65.625,105.6406 Q65.625,105.9844 65.2813,106.3906 Q64.7813,106.9688 63.9844,107.2969 Q62.9063,107.75 61.6094,107.75 Q60.0938,107.75 58.8906,107.125 Q57.9063,106.625 57.2188,105.5625 Q56.5313,104.4844 56.5313,103.2031 L56.5313,102.0469 Q56.5313,100.7188 57.1406,99.5781 Q57.7656,98.4219 58.8594,97.8125 Q59.9531,97.1875 61.1875,97.1875 Q61.9219,97.1875 62.5625,97.3594 Q63.2188,97.5156 63.7656,97.875 Z " fill="#000000"/><text fill="#000000" font-family="sans-serif" font-size="14" lengthAdjust="spacing" textLength="152" x="75" y="107.7285">FluentValidationPipeline</text><rect fill="#FFFFFF" height="17.0938" style="stroke:#181818;stroke-width:1.0;stroke-dasharray:2.0,2.0;" width="124" x="235" y="83"/><text fill="#000000" font-family="sans-serif" font-size="12" font-style="italic" lengthAdjust="spacing" textLength="122" x="236" y="96.457">TRequest, TResponse</text><line style="stroke:#181818;stroke-width:0.5;" x1="47" x2="355" y1="118" y2="118"/><line style="stroke:#181818;stroke-width:0.5;" x1="47" x2="355" y1="126" y2="126"/></g><!--MD5=[8ed5641601c90a1e3136d0a3482bef2a]
class IRequest--><g id="elem_IRequest"><rect codeLine="27" fill="#F1F1F1" height="48" id="IRequest" rx="2.5" ry="2.5" style="stroke:#181818;stroke-width:0.5;" width="182" x="1020" y="234"/><ellipse cx="1035" cy="250" fill="#B4A7E5" rx="11" ry="11" style="stroke:#181818;stroke-width:1.0;"/><path d="M1035.9531,246.6406 L1035.9531,253.2969 L1037.6719,253.2969 Q1038.2813,253.2969 1038.5469,253.5313 Q1038.8125,253.7656 1038.8125,254.1563 Q1038.8125,254.5313 1038.5469,254.7656 Q1038.2813,255 1037.6719,255 L1032.5313,255 Q1031.9219,255 1031.6563,254.7656 Q1031.3906,254.5313 1031.3906,254.1406 Q1031.3906,253.7656 1031.6563,253.5313 Q1031.9219,253.2969 1032.5313,253.2969 L1034.25,253.2969 L1034.25,246.6406 L1032.5313,246.6406 Q1031.9219,246.6406 1031.6563,246.4063 Q1031.3906,246.1719 1031.3906,245.7813 Q1031.3906,245.4063 1031.6563,245.1719 Q1031.9219,244.9375 1032.5313,244.9375 L1037.6719,244.9375 Q1038.2813,244.9375 1038.5469,245.1719 Q1038.8125,245.4063 1038.8125,245.7813 Q1038.8125,246.1719 1038.5469,246.4063 Q1038.2813,246.6406 1037.6719,246.6406 L1035.9531,246.6406 Z " fill="#000000"/><text fill="#000000" font-family="sans-serif" font-size="14" font-style="italic" lengthAdjust="spacing" textLength="57" x="1049" y="255.7285">IRequest</text><rect fill="#FFFFFF" height="17.0938" style="stroke:#181818;stroke-width:1.0;stroke-dasharray:2.0,2.0;" width="91" x="1114" y="231"/><text fill="#000000" font-family="sans-serif" font-size="12" font-style="italic" lengthAdjust="spacing" textLength="89" x="1115" y="244.457">OperationResult</text><line style="stroke:#181818;stroke-width:0.5;" x1="1021" x2="1201" y1="266" y2="266"/><line style="stroke:#181818;stroke-width:0.5;" x1="1021" x2="1201" y1="274" y2="274"/></g><!--MD5=[5cc238aab23acca9f40b1e816c958b98]
class IPipelineBehavior--><g id="elem_IPipelineBehavior"><rect codeLine="30" fill="#F1F1F1" height="48" id="IPipelineBehavior" rx="2.5" ry="2.5" style="stroke:#181818;stroke-width:0.5;" width="267" x="423.5" y="234"/><ellipse cx="438.5" cy="250" fill="#B4A7E5" rx="11" ry="11" style="stroke:#181818;stroke-width:1.0;"/><path d="M439.4531,246.6406 L439.4531,253.2969 L441.1719,253.2969 Q441.7813,253.2969 442.0469,253.5313 Q442.3125,253.7656 442.3125,254.1563 Q442.3125,254.5313 442.0469,254.7656 Q441.7813,255 441.1719,255 L436.0313,255 Q435.4219,255 435.1563,254.7656 Q434.8906,254.5313 434.8906,254.1406 Q434.8906,253.7656 435.1563,253.5313 Q435.4219,253.2969 436.0313,253.2969 L437.75,253.2969 L437.75,246.6406 L436.0313,246.6406 Q435.4219,246.6406 435.1563,246.4063 Q434.8906,246.1719 434.8906,245.7813 Q434.8906,245.4063 435.1563,245.1719 Q435.4219,244.9375 436.0313,244.9375 L441.1719,244.9375 Q441.7813,244.9375 442.0469,245.1719 Q442.3125,245.4063 442.3125,245.7813 Q442.3125,246.1719 442.0469,246.4063 Q441.7813,246.6406 441.1719,246.6406 L439.4531,246.6406 Z " fill="#000000"/><text fill="#000000" font-family="sans-serif" font-size="14" font-style="italic" lengthAdjust="spacing" textLength="109" x="452.5" y="255.7285">IPipelineBehavior</text><rect fill="#FFFFFF" height="17.0938" style="stroke:#181818;stroke-width:1.0;stroke-dasharray:2.0,2.0;" width="124" x="569.5" y="231"/><text fill="#000000" font-family="sans-serif" font-size="12" font-style="italic" lengthAdjust="spacing" textLength="122" x="570.5" y="244.457">TRequest, TResponse</text><line style="stroke:#181818;stroke-width:0.5;" x1="424.5" x2="689.5" y1="266" y2="266"/><line style="stroke:#181818;stroke-width:0.5;" x1="424.5" x2="689.5" y1="274" y2="274"/></g><!--MD5=[bf44a3b7262d69a365ebc23047db99c9]
class MediatR.IRequest--><g id="elem_MediatR.IRequest"><rect codeLine="34" fill="#F1F1F1" height="48" id="MediatR.IRequest" rx="2.5" ry="2.5" style="stroke:#181818;stroke-width:0.5;" width="259" x="725.5" y="234"/><ellipse cx="740.5" cy="250" fill="#B4A7E5" rx="11" ry="11" style="stroke:#181818;stroke-width:1.0;"/><path d="M741.4531,246.6406 L741.4531,253.2969 L743.1719,253.2969 Q743.7813,253.2969 744.0469,253.5313 Q744.3125,253.7656 744.3125,254.1563 Q744.3125,254.5313 744.0469,254.7656 Q743.7813,255 743.1719,255 L738.0313,255 Q737.4219,255 737.1563,254.7656 Q736.8906,254.5313 736.8906,254.1406 Q736.8906,253.7656 737.1563,253.5313 Q737.4219,253.2969 738.0313,253.2969 L739.75,253.2969 L739.75,246.6406 L738.0313,246.6406 Q737.4219,246.6406 737.1563,246.4063 Q736.8906,246.1719 736.8906,245.7813 Q736.8906,245.4063 737.1563,245.1719 Q737.4219,244.9375 738.0313,244.9375 L743.1719,244.9375 Q743.7813,244.9375 744.0469,245.1719 Q744.3125,245.4063 744.3125,245.7813 Q744.3125,246.1719 744.0469,246.4063 Q743.7813,246.6406 743.1719,246.6406 L741.4531,246.6406 Z " fill="#000000"/><text fill="#000000" font-family="sans-serif" font-size="14" font-style="italic" lengthAdjust="spacing" textLength="57" x="754.5" y="255.7285">IRequest</text><rect fill="#FFFFFF" height="17.0938" style="stroke:#181818;stroke-width:1.0;stroke-dasharray:2.0,2.0;" width="168" x="819.5" y="231"/><text fill="#000000" font-family="sans-serif" font-size="12" font-style="italic" lengthAdjust="spacing" textLength="166" x="820.5" y="244.457">OperationResult&lt;TResponse&gt;</text><line style="stroke:#181818;stroke-width:0.5;" x1="726.5" x2="983.5" y1="266" y2="266"/><line style="stroke:#181818;stroke-width:0.5;" x1="726.5" x2="983.5" y1="274" y2="274"/></g><!--MD5=[2b294c51d99b4a673f9b0f86c9f61572]
link ICommand to IRequest--><g id="link_ICommand_IRequest"><path codeLine="37" d="M1186.74,134.13 C1173.11,156.24 1152.28,190.03 1135.91,216.58 " fill="none" id="ICommand-to-IRequest" style="stroke:#181818;stroke-width:1.0;"/><polygon fill="none" points="1141.65,220.62,1125.19,233.97,1129.73,213.28,1141.65,220.62" style="stroke:#181818;stroke-width:1.0;"/></g><!--MD5=[80b2b6705b086b96eb52cf057340e33e]
link Contracts.ICommand to MediatR.IRequest--><g id="link_Contracts.ICommand_MediatR.IRequest"><path codeLine="38" d="M855,134.13 C855,155.49 855,187.76 855,213.87 " fill="none" id="Contracts.ICommand-to-MediatR.IRequest" style="stroke:#181818;stroke-width:1.0;"/><polygon fill="none" points="862,213.97,855,233.97,848,213.97,862,213.97" style="stroke:#181818;stroke-width:1.0;"/></g><!--MD5=[81906f152d0dbcd549dc54ebdc706235]
link IQuery to MediatR.IRequest--><g id="link_IQuery_MediatR.IRequest"><path codeLine="39" d="M1016.34,134.28 C998.99,148.26 976.36,166.33 956,182 C938.83,195.22 919.79,209.46 902.92,221.94 " fill="none" id="IQuery-to-MediatR.IRequest" style="stroke:#181818;stroke-width:1.0;"/><polygon fill="none" points="906.85,227.74,886.6,233.97,898.55,216.47,906.85,227.74" style="stroke:#181818;stroke-width:1.0;"/></g><!--MD5=[df595d6cbf9c655f6c79fc956e265ca2]
link ExceptionHandlingPipeline to IPipelineBehavior--><g id="link_ExceptionHandlingPipeline_IPipelineBehavior"><path codeLine="41" d="M553.63,134.13 C554.22,155.49 555.1,187.76 555.82,213.87 " fill="none" id="ExceptionHandlingPipeline-to-IPipelineBehavior" style="stroke:#181818;stroke-width:1.0;"/><polygon fill="none" points="562.82,213.79,556.37,233.97,548.82,214.17,562.82,213.79" style="stroke:#181818;stroke-width:1.0;"/></g><!--MD5=[17d5985c51c7fdba043838e5904c0d36]
link FluentValidationPipeline to IPipelineBehavior--><g id="link_FluentValidationPipeline_IPipelineBehavior"><path codeLine="42" d="M256.75,134.09 C290.4,148 334.15,166.06 373,182 C408.62,196.61 448.15,212.73 481.41,226.28 " fill="none" id="FluentValidationPipeline-to-IPipelineBehavior" style="stroke:#181818;stroke-width:1.0;"/><polygon fill="none" points="484.31,219.9,500.19,233.92,479.03,232.87,484.31,219.9" style="stroke:#181818;stroke-width:1.0;"/></g><!--MD5=[3b317c5375cb2b11f72a3c62f3a969f7]
@startuml OperationResult_MediatorIntegration

package OperationResult.MediatorIntegration {
    package Contracts {
        interface ICommand {

        }

        interface IQuery<TResponse> {

        }
    }

    interface Contracts.ICommand<TResponse> {
            
    }

    package Pipelines {
        class ExceptionHandlingPipeline<TRequest, TResponse> {
        }

        class FluentValidationPipeline<TRequest, TResponse> {
        }
    }
}

package MediatR {
    interface IRequest<OperationResult> {
    }

    interface IPipelineBehavior<TRequest, TResponse> {
    }
}

interface MediatR.IRequest<OperationResult<TResponse>> {
}

ICommand - -|> IRequest
Contracts.ICommand - -|> MediatR.IRequest
IQuery - -|> MediatR.IRequest

ExceptionHandlingPipeline - -|> IPipelineBehavior
FluentValidationPipeline - -|> IPipelineBehavior

@enduml

PlantUML version 1.2022.7(Mon Aug 22 20:01:30 EEST 2022)
(GPL source distribution)
Java Runtime: Java(TM) SE Runtime Environment
JVM: Java HotSpot(TM) 64-Bit Server VM
Default Encoding: UTF-8
Language: en
Country: US
--></g></svg>