<?xml version="1.0" encoding="UTF-8" standalone="no"?><svg xmlns="http://www.w3.org/2000/svg" xmlns:xlink="http://www.w3.org/1999/xlink" contentStyleType="text/css" height="413px" preserveAspectRatio="none" style="width:1356px;height:413px;background:#FFFFFF;" version="1.1" viewBox="0 0 1356 413" width="1356px" zoomAndPan="magnify"><defs/><g><!--MD5=[e2d340932e8357469a373002aefc34f0]
cluster OperationResult.MediatorIntegration--><g id="cluster_OperationResult.MediatorIntegration"><path d="M8.5,6 L268.5,6 A3.75,3.75 0 0 1 271,8.5 L278,29.6094 L1346.5,29.6094 A2.5,2.5 0 0 1 1349,32.1094 L1349,279.5 A2.5,2.5 0 0 1 1346.5,282 L8.5,282 A2.5,2.5 0 0 1 6,279.5 L6,8.5 A2.5,2.5 0 0 1 8.5,6 " fill="none" style="stroke:#000000;stroke-width:1.5;"/><line style="stroke:#000000;stroke-width:1.5;" x1="6" x2="278" y1="29.6094" y2="29.6094"/><text fill="#000000" font-family="sans-serif" font-size="14" font-weight="bold" lengthAdjust="spacing" textLength="259" x="10" y="22.5332">OperationResult.MediatorIntegration</text></g><!--MD5=[d5c1c9ce83ade5a935aa847b812afe6f]
cluster Contracts--><g id="cluster_Contracts"><path d="M815.5,50 L884.5,50 A3.75,3.75 0 0 1 887,52.5 L894,73.6094 L1322.5,73.6094 A2.5,2.5 0 0 1 1325,76.1094 L1325,147.5 A2.5,2.5 0 0 1 1322.5,150 L815.5,150 A2.5,2.5 0 0 1 813,147.5 L813,52.5 A2.5,2.5 0 0 1 815.5,50 " fill="none" style="stroke:#000000;stroke-width:1.5;"/><line style="stroke:#000000;stroke-width:1.5;" x1="813" x2="894" y1="73.6094" y2="73.6094"/><text fill="#000000" font-family="sans-serif" font-size="14" font-weight="bold" lengthAdjust="spacing" textLength="68" x="817" y="66.5332">Contracts</text></g><!--MD5=[c90e3a17b85d4d1a1b8fd7c3cb6ca96a]
cluster Pipelines--><g id="cluster_Pipelines"><path d="M32.5,50 L98.5,50 A3.75,3.75 0 0 1 101,52.5 L108,73.6094 L786.5,73.6094 A2.5,2.5 0 0 1 789,76.1094 L789,255.5 A2.5,2.5 0 0 1 786.5,258 L32.5,258 A2.5,2.5 0 0 1 30,255.5 L30,52.5 A2.5,2.5 0 0 1 32.5,50 " fill="none" style="stroke:#000000;stroke-width:1.5;"/><line style="stroke:#000000;stroke-width:1.5;" x1="30" x2="108" y1="73.6094" y2="73.6094"/><text fill="#000000" font-family="sans-serif" font-size="14" font-weight="bold" lengthAdjust="spacing" textLength="65" x="34" y="66.5332">Pipelines</text></g><!--MD5=[c253113ac072c9194e26b85789b8778e]
cluster MediatR--><g id="cluster_MediatR"><path d="M379.5,306 L438.5,306 A3.75,3.75 0 0 1 441,308.5 L448,329.6094 L1186.5,329.6094 A2.5,2.5 0 0 1 1189,332.1094 L1189,403.5 A2.5,2.5 0 0 1 1186.5,406 L379.5,406 A2.5,2.5 0 0 1 377,403.5 L377,308.5 A2.5,2.5 0 0 1 379.5,306 " fill="none" style="stroke:#000000;stroke-width:1.5;"/><line style="stroke:#000000;stroke-width:1.5;" x1="377" x2="448" y1="329.6094" y2="329.6094"/><text fill="#000000" font-family="sans-serif" font-size="14" font-weight="bold" lengthAdjust="spacing" textLength="58" x="381" y="322.5332">MediatR</text></g><!--MD5=[11008d568be52109e77f2977709dd853]
class ICommand--><g id="elem_ICommand"><rect codeLine="4" fill="#F1F1F1" height="48" id="ICommand" rx="2.5" ry="2.5" style="stroke:#181818;stroke-width:0.5;" width="100" x="829" y="86"/><ellipse cx="844" cy="102" fill="#B4A7E5" rx="11" ry="11" style="stroke:#181818;stroke-width:1.0;"/><path d="M844.9531,98.6406 L844.9531,105.2969 L846.6719,105.2969 Q847.2813,105.2969 847.5469,105.5313 Q847.8125,105.7656 847.8125,106.1563 Q847.8125,106.5313 847.5469,106.7656 Q847.2813,107 846.6719,107 L841.5313,107 Q840.9219,107 840.6563,106.7656 Q840.3906,106.5313 840.3906,106.1406 Q840.3906,105.7656 840.6563,105.5313 Q840.9219,105.2969 841.5313,105.2969 L843.25,105.2969 L843.25,98.6406 L841.5313,98.6406 Q840.9219,98.6406 840.6563,98.4063 Q840.3906,98.1719 840.3906,97.7813 Q840.3906,97.4063 840.6563,97.1719 Q840.9219,96.9375 841.5313,96.9375 L846.6719,96.9375 Q847.2813,96.9375 847.5469,97.1719 Q847.8125,97.4063 847.8125,97.7813 Q847.8125,98.1719 847.5469,98.4063 Q847.2813,98.6406 846.6719,98.6406 L844.9531,98.6406 Z " fill="#000000"/><text fill="#000000" font-family="sans-serif" font-size="14" font-style="italic" lengthAdjust="spacing" textLength="68" x="858" y="107.7285">ICommand</text><line style="stroke:#181818;stroke-width:0.5;" x1="830" x2="928" y1="118" y2="118"/><line style="stroke:#181818;stroke-width:0.5;" x1="830" x2="928" y1="126" y2="126"/></g><!--MD5=[807360d9e6bcfb24ecaab88291cadeca]
class IQuery--><g id="elem_IQuery"><rect codeLine="8" fill="#F1F1F1" height="48" id="IQuery" rx="2.5" ry="2.5" style="stroke:#181818;stroke-width:0.5;" width="142" x="964" y="86"/><ellipse cx="979" cy="102" fill="#B4A7E5" rx="11" ry="11" style="stroke:#181818;stroke-width:1.0;"/><path d="M979.9531,98.6406 L979.9531,105.2969 L981.6719,105.2969 Q982.2813,105.2969 982.5469,105.5313 Q982.8125,105.7656 982.8125,106.1563 Q982.8125,106.5313 982.5469,106.7656 Q982.2813,107 981.6719,107 L976.5313,107 Q975.9219,107 975.6563,106.7656 Q975.3906,106.5313 975.3906,106.1406 Q975.3906,105.7656 975.6563,105.5313 Q975.9219,105.2969 976.5313,105.2969 L978.25,105.2969 L978.25,98.6406 L976.5313,98.6406 Q975.9219,98.6406 975.6563,98.4063 Q975.3906,98.1719 975.3906,97.7813 Q975.3906,97.4063 975.6563,97.1719 Q975.9219,96.9375 976.5313,96.9375 L981.6719,96.9375 Q982.2813,96.9375 982.5469,97.1719 Q982.8125,97.4063 982.8125,97.7813 Q982.8125,98.1719 982.5469,98.4063 Q982.2813,98.6406 981.6719,98.6406 L979.9531,98.6406 Z " fill="#000000"/><text fill="#000000" font-family="sans-serif" font-size="14" font-style="italic" lengthAdjust="spacing" textLength="43" x="993" y="107.7285">IQuery</text><rect fill="#FFFFFF" height="17.0938" style="stroke:#181818;stroke-width:1.0;stroke-dasharray:2.0,2.0;" width="65" x="1044" y="83"/><text fill="#000000" font-family="sans-serif" font-size="12" font-style="italic" lengthAdjust="spacing" textLength="63" x="1045" y="96.457">TResponse</text><line style="stroke:#181818;stroke-width:0.5;" x1="965" x2="1105" y1="118" y2="118"/><line style="stroke:#181818;stroke-width:0.5;" x1="965" x2="1105" y1="126" y2="126"/></g><!--MD5=[3637c4f62dbe31b3909ee6e14d5786f4]
class Contracts.ICommand--><g id="elem_Contracts.ICommand"><rect codeLine="13" fill="#F1F1F1" height="48" id="Contracts.ICommand" rx="2.5" ry="2.5" style="stroke:#181818;stroke-width:0.5;" width="167" x="1141.5" y="86"/><ellipse cx="1156.5" cy="102" fill="#B4A7E5" rx="11" ry="11" style="stroke:#181818;stroke-width:1.0;"/><path d="M1157.4531,98.6406 L1157.4531,105.2969 L1159.1719,105.2969 Q1159.7813,105.2969 1160.0469,105.5313 Q1160.3125,105.7656 1160.3125,106.1563 Q1160.3125,106.5313 1160.0469,106.7656 Q1159.7813,107 1159.1719,107 L1154.0313,107 Q1153.4219,107 1153.1563,106.7656 Q1152.8906,106.5313 1152.8906,106.1406 Q1152.8906,105.7656 1153.1563,105.5313 Q1153.4219,105.2969 1154.0313,105.2969 L1155.75,105.2969 L1155.75,98.6406 L1154.0313,98.6406 Q1153.4219,98.6406 1153.1563,98.4063 Q1152.8906,98.1719 1152.8906,97.7813 Q1152.8906,97.4063 1153.1563,97.1719 Q1153.4219,96.9375 1154.0313,96.9375 L1159.1719,96.9375 Q1159.7813,96.9375 1160.0469,97.1719 Q1160.3125,97.4063 1160.3125,97.7813 Q1160.3125,98.1719 1160.0469,98.4063 Q1159.7813,98.6406 1159.1719,98.6406 L1157.4531,98.6406 Z " fill="#000000"/><text fill="#000000" font-family="sans-serif" font-size="14" font-style="italic" lengthAdjust="spacing" textLength="68" x="1170.5" y="107.7285">ICommand</text><rect fill="#FFFFFF" height="17.0938" style="stroke:#181818;stroke-width:1.0;stroke-dasharray:2.0,2.0;" width="65" x="1246.5" y="83"/><text fill="#000000" font-family="sans-serif" font-size="12" font-style="italic" lengthAdjust="spacing" textLength="63" x="1247.5" y="96.457">TResponse</text><line style="stroke:#181818;stroke-width:0.5;" x1="1142.5" x2="1307.5" y1="118" y2="118"/><line style="stroke:#181818;stroke-width:0.5;" x1="1142.5" x2="1307.5" y1="126" y2="126"/></g><!--MD5=[4e3b999579f405a8c03c76b1359d50ce]
class ExceptionHandlingPipeline--><g id="elem_ExceptionHandlingPipeline"><rect codeLine="18" fill="#F1F1F1" height="48" id="ExceptionHandlingPipeline" rx="2.5" ry="2.5" style="stroke:#181818;stroke-width:0.5;" width="324" x="449" y="86"/><ellipse cx="464" cy="102" fill="#ADD1B2" rx="11" ry="11" style="stroke:#181818;stroke-width:1.0;"/><path d="M466.7656,97.875 Q466.9219,97.6563 467.1094,97.5469 Q467.2969,97.4375 467.5156,97.4375 Q467.8906,97.4375 468.125,97.7031 Q468.3594,97.9531 468.3594,98.5625 L468.3594,100.0156 Q468.3594,100.625 468.125,100.8906 Q467.8906,101.1563 467.5156,101.1563 Q467.1719,101.1563 466.9688,100.9531 Q466.7656,100.7656 466.6563,100.25 Q466.6094,99.8906 466.4219,99.7031 Q466.0938,99.3281 465.4844,99.1094 Q464.875,98.8906 464.25,98.8906 Q463.4844,98.8906 462.8438,99.2188 Q462.2188,99.5469 461.7188,100.2969 Q461.2344,101.0469 461.2344,102.0781 L461.2344,103.1719 Q461.2344,104.4063 462.125,105.2344 Q463.0156,106.0469 464.6094,106.0469 Q465.5469,106.0469 466.2031,105.7969 Q466.5938,105.6406 467.0156,105.2031 Q467.2813,104.9375 467.4219,104.8594 Q467.5781,104.7813 467.7813,104.7813 Q468.1094,104.7813 468.3594,105.0469 Q468.625,105.2969 468.625,105.6406 Q468.625,105.9844 468.2813,106.3906 Q467.7813,106.9688 466.9844,107.2969 Q465.9063,107.75 464.6094,107.75 Q463.0938,107.75 461.8906,107.125 Q460.9063,106.625 460.2188,105.5625 Q459.5313,104.4844 459.5313,103.2031 L459.5313,102.0469 Q459.5313,100.7188 460.1406,99.5781 Q460.7656,98.4219 461.8594,97.8125 Q462.9531,97.1875 464.1875,97.1875 Q464.9219,97.1875 465.5625,97.3594 Q466.2188,97.5156 466.7656,97.875 Z " fill="#000000"/><text fill="#000000" font-family="sans-serif" font-size="14" lengthAdjust="spacing" textLength="166" x="478" y="107.7285">ExceptionHandlingPipeline</text><rect fill="#FFFFFF" height="17.0938" style="stroke:#181818;stroke-width:1.0;stroke-dasharray:2.0,2.0;" width="124" x="652" y="83"/><text fill="#000000" font-family="sans-serif" font-size="12" font-style="italic" lengthAdjust="spacing" textLength="122" x="653" y="96.457">TRequest, TResponse</text><line style="stroke:#181818;stroke-width:0.5;" x1="450" x2="772" y1="118" y2="118"/><line style="stroke:#181818;stroke-width:0.5;" x1="450" x2="772" y1="126" y2="126"/></g><!--MD5=[e3d9c976efc42cc5a787090a0f2c5868]
class FluentValidationPipeline--><g id="elem_FluentValidationPipeline"><rect codeLine="21" fill="#F1F1F1" height="48" id="FluentValidationPipeline" rx="2.5" ry="2.5" style="stroke:#181818;stroke-width:0.5;" width="310" x="115" y="194"/><ellipse cx="130" cy="210" fill="#ADD1B2" rx="11" ry="11" style="stroke:#181818;stroke-width:1.0;"/><path d="M132.7656,205.875 Q132.9219,205.6563 133.1094,205.5469 Q133.2969,205.4375 133.5156,205.4375 Q133.8906,205.4375 134.125,205.7031 Q134.3594,205.9531 134.3594,206.5625 L134.3594,208.0156 Q134.3594,208.625 134.125,208.8906 Q133.8906,209.1563 133.5156,209.1563 Q133.1719,209.1563 132.9688,208.9531 Q132.7656,208.7656 132.6563,208.25 Q132.6094,207.8906 132.4219,207.7031 Q132.0938,207.3281 131.4844,207.1094 Q130.875,206.8906 130.25,206.8906 Q129.4844,206.8906 128.8438,207.2188 Q128.2188,207.5469 127.7188,208.2969 Q127.2344,209.0469 127.2344,210.0781 L127.2344,211.1719 Q127.2344,212.4063 128.125,213.2344 Q129.0156,214.0469 130.6094,214.0469 Q131.5469,214.0469 132.2031,213.7969 Q132.5938,213.6406 133.0156,213.2031 Q133.2813,212.9375 133.4219,212.8594 Q133.5781,212.7813 133.7813,212.7813 Q134.1094,212.7813 134.3594,213.0469 Q134.625,213.2969 134.625,213.6406 Q134.625,213.9844 134.2813,214.3906 Q133.7813,214.9688 132.9844,215.2969 Q131.9063,215.75 130.6094,215.75 Q129.0938,215.75 127.8906,215.125 Q126.9063,214.625 126.2188,213.5625 Q125.5313,212.4844 125.5313,211.2031 L125.5313,210.0469 Q125.5313,208.7188 126.1406,207.5781 Q126.7656,206.4219 127.8594,205.8125 Q128.9531,205.1875 130.1875,205.1875 Q130.9219,205.1875 131.5625,205.3594 Q132.2188,205.5156 132.7656,205.875 Z " fill="#000000"/><text fill="#000000" font-family="sans-serif" font-size="14" lengthAdjust="spacing" textLength="152" x="144" y="215.7285">FluentValidationPipeline</text><rect fill="#FFFFFF" height="17.0938" style="stroke:#181818;stroke-width:1.0;stroke-dasharray:2.0,2.0;" width="124" x="304" y="191"/><text fill="#000000" font-family="sans-serif" font-size="12" font-style="italic" lengthAdjust="spacing" textLength="122" x="305" y="204.457">TRequest, TResponse</text><line style="stroke:#181818;stroke-width:0.5;" x1="116" x2="424" y1="226" y2="226"/><line style="stroke:#181818;stroke-width:0.5;" x1="116" x2="424" y1="234" y2="234"/></g><!--MD5=[def64171ed5045942be0061af2356c0a]
class DataAnnotationValidationPipeline--><g id="elem_DataAnnotationValidationPipeline"><rect codeLine="24" fill="#F1F1F1" height="48" id="DataAnnotationValidationPipeline" rx="2.5" ry="2.5" style="stroke:#181818;stroke-width:0.5;" width="368" x="46" y="86"/><ellipse cx="61" cy="102" fill="#ADD1B2" rx="11" ry="11" style="stroke:#181818;stroke-width:1.0;"/><path d="M63.7656,97.875 Q63.9219,97.6563 64.1094,97.5469 Q64.2969,97.4375 64.5156,97.4375 Q64.8906,97.4375 65.125,97.7031 Q65.3594,97.9531 65.3594,98.5625 L65.3594,100.0156 Q65.3594,100.625 65.125,100.8906 Q64.8906,101.1563 64.5156,101.1563 Q64.1719,101.1563 63.9688,100.9531 Q63.7656,100.7656 63.6563,100.25 Q63.6094,99.8906 63.4219,99.7031 Q63.0938,99.3281 62.4844,99.1094 Q61.875,98.8906 61.25,98.8906 Q60.4844,98.8906 59.8438,99.2188 Q59.2188,99.5469 58.7188,100.2969 Q58.2344,101.0469 58.2344,102.0781 L58.2344,103.1719 Q58.2344,104.4063 59.125,105.2344 Q60.0156,106.0469 61.6094,106.0469 Q62.5469,106.0469 63.2031,105.7969 Q63.5938,105.6406 64.0156,105.2031 Q64.2813,104.9375 64.4219,104.8594 Q64.5781,104.7813 64.7813,104.7813 Q65.1094,104.7813 65.3594,105.0469 Q65.625,105.2969 65.625,105.6406 Q65.625,105.9844 65.2813,106.3906 Q64.7813,106.9688 63.9844,107.2969 Q62.9063,107.75 61.6094,107.75 Q60.0938,107.75 58.8906,107.125 Q57.9063,106.625 57.2188,105.5625 Q56.5313,104.4844 56.5313,103.2031 L56.5313,102.0469 Q56.5313,100.7188 57.1406,99.5781 Q57.7656,98.4219 58.8594,97.8125 Q59.9531,97.1875 61.1875,97.1875 Q61.9219,97.1875 62.5625,97.3594 Q63.2188,97.5156 63.7656,97.875 Z " fill="#000000"/><text fill="#000000" font-family="sans-serif" font-size="14" lengthAdjust="spacing" textLength="210" x="75" y="107.7285">DataAnnotationValidationPipeline</text><rect fill="#FFFFFF" height="17.0938" style="stroke:#181818;stroke-width:1.0;stroke-dasharray:2.0,2.0;" width="124" x="293" y="83"/><text fill="#000000" font-family="sans-serif" font-size="12" font-style="italic" lengthAdjust="spacing" textLength="122" x="294" y="96.457">TRequest, TResponse</text><line style="stroke:#181818;stroke-width:0.5;" x1="47" x2="413" y1="118" y2="118"/><line style="stroke:#181818;stroke-width:0.5;" x1="47" x2="413" y1="126" y2="126"/></g><!--MD5=[8ed5641601c90a1e3136d0a3482bef2a]
class IRequest--><g id="elem_IRequest"><rect codeLine="30" fill="#F1F1F1" height="48" id="IRequest" rx="2.5" ry="2.5" style="stroke:#181818;stroke-width:0.5;" width="182" x="696" y="342"/><ellipse cx="711" cy="358" fill="#B4A7E5" rx="11" ry="11" style="stroke:#181818;stroke-width:1.0;"/><path d="M711.9531,354.6406 L711.9531,361.2969 L713.6719,361.2969 Q714.2813,361.2969 714.5469,361.5313 Q714.8125,361.7656 714.8125,362.1563 Q714.8125,362.5313 714.5469,362.7656 Q714.2813,363 713.6719,363 L708.5313,363 Q707.9219,363 707.6563,362.7656 Q707.3906,362.5313 707.3906,362.1406 Q707.3906,361.7656 707.6563,361.5313 Q707.9219,361.2969 708.5313,361.2969 L710.25,361.2969 L710.25,354.6406 L708.5313,354.6406 Q707.9219,354.6406 707.6563,354.4063 Q707.3906,354.1719 707.3906,353.7813 Q707.3906,353.4063 707.6563,353.1719 Q707.9219,352.9375 708.5313,352.9375 L713.6719,352.9375 Q714.2813,352.9375 714.5469,353.1719 Q714.8125,353.4063 714.8125,353.7813 Q714.8125,354.1719 714.5469,354.4063 Q714.2813,354.6406 713.6719,354.6406 L711.9531,354.6406 Z " fill="#000000"/><text fill="#000000" font-family="sans-serif" font-size="14" font-style="italic" lengthAdjust="spacing" textLength="57" x="725" y="363.7285">IRequest</text><rect fill="#FFFFFF" height="17.0938" style="stroke:#181818;stroke-width:1.0;stroke-dasharray:2.0,2.0;" width="91" x="790" y="339"/><text fill="#000000" font-family="sans-serif" font-size="12" font-style="italic" lengthAdjust="spacing" textLength="89" x="791" y="352.457">OperationResult</text><line style="stroke:#181818;stroke-width:0.5;" x1="697" x2="877" y1="374" y2="374"/><line style="stroke:#181818;stroke-width:0.5;" x1="697" x2="877" y1="382" y2="382"/></g><!--MD5=[5cc238aab23acca9f40b1e816c958b98]
class IPipelineBehavior--><g id="elem_IPipelineBehavior"><rect codeLine="33" fill="#F1F1F1" height="48" id="IPipelineBehavior" rx="2.5" ry="2.5" style="stroke:#181818;stroke-width:0.5;" width="267" x="393.5" y="342"/><ellipse cx="408.5" cy="358" fill="#B4A7E5" rx="11" ry="11" style="stroke:#181818;stroke-width:1.0;"/><path d="M409.4531,354.6406 L409.4531,361.2969 L411.1719,361.2969 Q411.7813,361.2969 412.0469,361.5313 Q412.3125,361.7656 412.3125,362.1563 Q412.3125,362.5313 412.0469,362.7656 Q411.7813,363 411.1719,363 L406.0313,363 Q405.4219,363 405.1563,362.7656 Q404.8906,362.5313 404.8906,362.1406 Q404.8906,361.7656 405.1563,361.5313 Q405.4219,361.2969 406.0313,361.2969 L407.75,361.2969 L407.75,354.6406 L406.0313,354.6406 Q405.4219,354.6406 405.1563,354.4063 Q404.8906,354.1719 404.8906,353.7813 Q404.8906,353.4063 405.1563,353.1719 Q405.4219,352.9375 406.0313,352.9375 L411.1719,352.9375 Q411.7813,352.9375 412.0469,353.1719 Q412.3125,353.4063 412.3125,353.7813 Q412.3125,354.1719 412.0469,354.4063 Q411.7813,354.6406 411.1719,354.6406 L409.4531,354.6406 Z " fill="#000000"/><text fill="#000000" font-family="sans-serif" font-size="14" font-style="italic" lengthAdjust="spacing" textLength="109" x="422.5" y="363.7285">IPipelineBehavior</text><rect fill="#FFFFFF" height="17.0938" style="stroke:#181818;stroke-width:1.0;stroke-dasharray:2.0,2.0;" width="124" x="539.5" y="339"/><text fill="#000000" font-family="sans-serif" font-size="12" font-style="italic" lengthAdjust="spacing" textLength="122" x="540.5" y="352.457">TRequest, TResponse</text><line style="stroke:#181818;stroke-width:0.5;" x1="394.5" x2="659.5" y1="374" y2="374"/><line style="stroke:#181818;stroke-width:0.5;" x1="394.5" x2="659.5" y1="382" y2="382"/></g><!--MD5=[bf44a3b7262d69a365ebc23047db99c9]
class MediatR.IRequest--><g id="elem_MediatR.IRequest"><rect codeLine="37" fill="#F1F1F1" height="48" id="MediatR.IRequest" rx="2.5" ry="2.5" style="stroke:#181818;stroke-width:0.5;" width="259" x="913.5" y="342"/><ellipse cx="928.5" cy="358" fill="#B4A7E5" rx="11" ry="11" style="stroke:#181818;stroke-width:1.0;"/><path d="M929.4531,354.6406 L929.4531,361.2969 L931.1719,361.2969 Q931.7813,361.2969 932.0469,361.5313 Q932.3125,361.7656 932.3125,362.1563 Q932.3125,362.5313 932.0469,362.7656 Q931.7813,363 931.1719,363 L926.0313,363 Q925.4219,363 925.1563,362.7656 Q924.8906,362.5313 924.8906,362.1406 Q924.8906,361.7656 925.1563,361.5313 Q925.4219,361.2969 926.0313,361.2969 L927.75,361.2969 L927.75,354.6406 L926.0313,354.6406 Q925.4219,354.6406 925.1563,354.4063 Q924.8906,354.1719 924.8906,353.7813 Q924.8906,353.4063 925.1563,353.1719 Q925.4219,352.9375 926.0313,352.9375 L931.1719,352.9375 Q931.7813,352.9375 932.0469,353.1719 Q932.3125,353.4063 932.3125,353.7813 Q932.3125,354.1719 932.0469,354.4063 Q931.7813,354.6406 931.1719,354.6406 L929.4531,354.6406 Z " fill="#000000"/><text fill="#000000" font-family="sans-serif" font-size="14" font-style="italic" lengthAdjust="spacing" textLength="57" x="942.5" y="363.7285">IRequest</text><rect fill="#FFFFFF" height="17.0938" style="stroke:#181818;stroke-width:1.0;stroke-dasharray:2.0,2.0;" width="168" x="1007.5" y="339"/><text fill="#000000" font-family="sans-serif" font-size="12" font-style="italic" lengthAdjust="spacing" textLength="166" x="1008.5" y="352.457">OperationResult&lt;TResponse&gt;</text><line style="stroke:#181818;stroke-width:0.5;" x1="914.5" x2="1171.5" y1="374" y2="374"/><line style="stroke:#181818;stroke-width:0.5;" x1="914.5" x2="1171.5" y1="382" y2="382"/></g><!--MD5=[2b294c51d99b4a673f9b0f86c9f61572]
link ICommand to IRequest--><g id="link_ICommand_IRequest"><path codeLine="40" d="M870.51,134.44 C854.96,177.36 821.73,269.11 802.2,323.03 " fill="none" id="ICommand-to-IRequest" style="stroke:#181818;stroke-width:1.0;"/><polygon fill="none" points="808.73,325.56,795.34,341.98,795.57,320.79,808.73,325.56" style="stroke:#181818;stroke-width:1.0;"/></g><!--MD5=[80b2b6705b086b96eb52cf057340e33e]
link Contracts.ICommand to MediatR.IRequest--><g id="link_Contracts.ICommand_MediatR.IRequest"><path codeLine="41" d="M1208.2,134.44 C1176.97,178.02 1109.67,271.96 1071.3,325.5 " fill="none" id="Contracts.ICommand-to-MediatR.IRequest" style="stroke:#181818;stroke-width:1.0;"/><polygon fill="none" points="1076.83,329.8,1059.49,341.98,1065.45,321.65,1076.83,329.8" style="stroke:#181818;stroke-width:1.0;"/></g><!--MD5=[81906f152d0dbcd549dc54ebdc706235]
link IQuery to MediatR.IRequest--><g id="link_IQuery_MediatR.IRequest"><path codeLine="42" d="M1035.74,134.44 C1037.08,177.08 1039.94,267.9 1041.64,321.95 " fill="none" id="IQuery-to-MediatR.IRequest" style="stroke:#181818;stroke-width:1.0;"/><polygon fill="none" points="1048.64,321.77,1042.28,341.98,1034.65,322.21,1048.64,321.77" style="stroke:#181818;stroke-width:1.0;"/></g><!--MD5=[df595d6cbf9c655f6c79fc956e265ca2]
link ExceptionHandlingPipeline to IPipelineBehavior--><g id="link_ExceptionHandlingPipeline_IPipelineBehavior"><path codeLine="44" d="M603.25,134.44 C589.09,177.27 558.85,268.71 541,322.67 " fill="none" id="ExceptionHandlingPipeline-to-IPipelineBehavior" style="stroke:#181818;stroke-width:1.0;"/><polygon fill="none" points="547.54,325.19,534.61,341.98,534.25,320.8,547.54,325.19" style="stroke:#181818;stroke-width:1.0;"/></g><!--MD5=[17d5985c51c7fdba043838e5904c0d36]
link FluentValidationPipeline to IPipelineBehavior--><g id="link_FluentValidationPipeline_IPipelineBehavior"><path codeLine="45" d="M310.72,242.13 C353.39,266.38 420.8,304.67 469.02,332.06 " fill="none" id="FluentValidationPipeline-to-IPipelineBehavior" style="stroke:#181818;stroke-width:1.0;"/><polygon fill="none" points="472.54,326.01,486.47,341.97,465.62,338.18,472.54,326.01" style="stroke:#181818;stroke-width:1.0;"/></g><!--MD5=[a7dce7194a0155d33bd092813d5ce151]
link DataAnnotationValidationPipeline to IPipelineBehavior--><g id="link_DataAnnotationValidationPipeline_IPipelineBehavior"><path codeLine="46" d="M332.59,134.05 C370.76,146.69 412.23,165.75 443,194 C480.82,228.73 503.66,284.23 515.78,322.53 " fill="none" id="DataAnnotationValidationPipeline-to-IPipelineBehavior" style="stroke:#181818;stroke-width:1.0;"/><polygon fill="none" points="522.52,320.64,521.44,341.8,509.09,324.58,522.52,320.64" style="stroke:#181818;stroke-width:1.0;"/></g><!--MD5=[83726409d25a5e0e6cb237179af1153c]
link DataAnnotationValidationPipeline to FluentValidationPipeline--><!--MD5=[4cc04eaf2d5d384fc000c52c1c00d8d6]
@startuml OperationResult_MediatorIntegration

package OperationResult.MediatorIntegration {
    package Contracts {
        interface ICommand {

        }

        interface IQuery<TResponse> {

        }
    }

    interface Contracts.ICommand<TResponse> {
            
    }

    package Pipelines {
        class ExceptionHandlingPipeline<TRequest, TResponse> {
        }

        class FluentValidationPipeline<TRequest, TResponse> {
        }

        class DataAnnotationValidationPipeline<TRequest, TResponse> {
        }
    }
}

package MediatR {
    interface IRequest<OperationResult> {
    }

    interface IPipelineBehavior<TRequest, TResponse> {
    }
}

interface MediatR.IRequest<OperationResult<TResponse>> {
}

ICommand - -|> IRequest
Contracts.ICommand - -|> MediatR.IRequest
IQuery - -|> MediatR.IRequest

ExceptionHandlingPipeline - -|> IPipelineBehavior
FluentValidationPipeline - -|> IPipelineBehavior
DataAnnotationValidationPipeline - -|> IPipelineBehavior

DataAnnotationValidationPipeline -[hidden]- FluentValidationPipeline

@enduml

PlantUML version 1.2022.7(Mon Aug 22 20:01:30 EEST 2022)
(GPL source distribution)
Java Runtime: Java(TM) SE Runtime Environment
JVM: Java HotSpot(TM) 64-Bit Server VM
Default Encoding: UTF-8
Language: uk
Country: UA
--></g></svg>